<svg width="24" height="25" viewBox="0 0 24 25" fill="none" xmlns="http://www.w3.org/2000/svg">
<g clip-path="url(#clip0_4768_7034)">
<path d="M20.6614 19.8755C10.9463 24.4991 4.91692 20.6307 1.05736 18.2811C0.818527 18.133 0.412602 18.3157 0.764798 18.7202C2.05061 20.2793 6.2645 24.0371 11.7648 24.0371C17.269 24.0371 20.5434 21.0338 20.9531 20.5099C21.3599 19.9904 21.0725 19.7039 20.6613 19.8755H20.6614ZM23.3899 18.3687C23.129 18.029 21.8035 17.9656 20.9693 18.0681C20.1338 18.1676 18.8798 18.6782 18.9888 18.9848C19.0447 19.0997 19.1589 19.0481 19.7329 18.9965C20.3084 18.9391 21.9206 18.7356 22.2566 19.1748C22.5941 19.617 21.7424 21.7235 21.5868 22.0633C21.4365 22.403 21.6442 22.4906 21.9266 22.2643C22.205 22.0382 22.709 21.4524 23.0473 20.6235C23.3832 19.79 23.5882 18.6274 23.3899 18.3687Z" fill="#FF9900"/>
<path fill-rule="evenodd" clip-rule="evenodd" d="M14.1287 10.442C14.1287 11.6551 14.1593 12.6669 13.5461 13.7442C13.0512 14.6202 12.2673 15.1589 11.3913 15.1589C10.1956 15.1589 9.49927 14.2479 9.49927 12.9034C9.49927 10.2492 11.8774 9.7675 14.1287 9.7675V10.442ZM17.2689 18.0321C17.063 18.216 16.7652 18.2292 16.5331 18.1065C15.4995 17.2481 15.3155 16.8495 14.7462 16.0305C13.0381 17.7737 11.8293 18.2948 9.61319 18.2948C6.99411 18.2948 4.95312 16.6787 4.95312 13.4421C4.95312 10.915 6.32406 9.19374 8.27291 8.35291C9.96354 7.60826 12.3242 7.47689 14.1287 7.27111V6.86814C14.1287 6.12793 14.1855 5.25201 13.752 4.61261C13.3709 4.03885 12.6439 3.80233 12.0044 3.80233C10.8176 3.80233 9.75767 4.41108 9.49927 5.67243C9.44665 5.9528 9.24087 6.22874 8.96059 6.24185L5.93853 5.91782C5.68457 5.86076 5.40429 5.65498 5.47436 5.26512C6.17072 1.60376 9.47729 0.5 12.438 0.5C13.9534 0.5 15.933 0.902971 17.1287 2.05049C18.6441 3.46509 18.4995 5.35273 18.4995 7.40682V12.2596C18.4995 13.718 19.1039 14.3574 19.6732 15.1458C19.8747 15.4261 19.9185 15.7634 19.6645 15.9735C19.0294 16.5034 17.8994 17.4889 17.2776 18.0408L17.2688 18.0321" fill="black"/>
<path d="M20.6614 19.8755C10.9463 24.4991 4.91692 20.6307 1.05736 18.2811C0.818527 18.133 0.412602 18.3157 0.764798 18.7202C2.05061 20.2793 6.2645 24.0371 11.7648 24.0371C17.269 24.0371 20.5434 21.0338 20.9531 20.5099C21.3599 19.9904 21.0725 19.7039 20.6613 19.8755H20.6614ZM23.3899 18.3687C23.129 18.029 21.8035 17.9656 20.9693 18.0681C20.1338 18.1676 18.8798 18.6782 18.9888 18.9848C19.0447 19.0997 19.1589 19.0481 19.7329 18.9965C20.3084 18.9391 21.9206 18.7356 22.2566 19.1748C22.5941 19.617 21.7424 21.7235 21.5868 22.0633C21.4365 22.403 21.6442 22.4906 21.9266 22.2643C22.205 22.0382 22.709 21.4524 23.0473 20.6235C23.3832 19.79 23.5882 18.6274 23.3899 18.3687Z" fill="#FF9900"/>
<path fill-rule="evenodd" clip-rule="evenodd" d="M14.1287 10.442C14.1287 11.6551 14.1593 12.6669 13.5461 13.7442C13.0512 14.6202 12.2673 15.1589 11.3913 15.1589C10.1956 15.1589 9.49927 14.2479 9.49927 12.9034C9.49927 10.2492 11.8774 9.7675 14.1287 9.7675V10.442ZM17.2689 18.0321C17.063 18.216 16.7652 18.2292 16.5331 18.1065C15.4995 17.2481 15.3155 16.8495 14.7462 16.0305C13.0381 17.7737 11.8293 18.2948 9.61319 18.2948C6.99411 18.2948 4.95312 16.6787 4.95312 13.4421C4.95312 10.915 6.32406 9.19374 8.27291 8.35291C9.96354 7.60826 12.3242 7.47689 14.1287 7.27111V6.86814C14.1287 6.12793 14.1855 5.25201 13.752 4.61261C13.3709 4.03885 12.6439 3.80233 12.0044 3.80233C10.8176 3.80233 9.75767 4.41108 9.49927 5.67243C9.44665 5.9528 9.24087 6.22874 8.96059 6.24185L5.93853 5.91782C5.68457 5.86076 5.40429 5.65498 5.47436 5.26512C6.17072 1.60376 9.47729 0.5 12.438 0.5C13.9534 0.5 15.933 0.902971 17.1287 2.05049C18.6441 3.46509 18.4995 5.35273 18.4995 7.40682V12.2596C18.4995 13.718 19.1039 14.3574 19.6732 15.1458C19.8747 15.4261 19.9185 15.7634 19.6645 15.9735C19.0294 16.5034 17.8994 17.4889 17.2776 18.0408L17.2688 18.0321" fill="black"/>
</g>
<defs>
<clipPath id="clip0_4768_7034">
<rect width="24" height="24" fill="white" transform="translate(0 0.5)"/>
</clipPath>
</defs>
</svg>
