<svg width="25" height="24" viewBox="0 0 25 24" fill="none" xmlns="http://www.w3.org/2000/svg">
<g clip-path="url(#clip0_2632_5301)">
<path d="M20.3206 5.58785C20.3206 4.79122 19.675 4.14795 18.8813 4.14795C18.0876 4.14795 17.4414 4.79122 17.4414 5.58785C17.4414 6.38155 18.0876 7.02479 18.8813 7.02479C19.675 7.02479 20.3206 6.38155 20.3206 5.58785Z" fill="url(#paint0_linear_2632_5301)"/>
<path d="M22.2394 16.8273C22.1861 17.9959 21.9906 18.6309 21.8284 19.0526C21.6103 19.6117 21.3503 20.0115 20.9286 20.4309C20.5116 20.8502 20.1118 21.1096 19.5527 21.3252C19.131 21.4899 18.4937 21.686 17.325 21.7416C16.0617 21.7973 15.6873 21.8092 12.4836 21.8092C9.28274 21.8092 8.90539 21.7973 7.64202 21.7416C6.47344 21.686 5.83906 21.4899 5.4173 21.3252C4.85522 21.1096 4.4584 20.8502 4.03904 20.4309C3.61671 20.0115 3.35671 19.6117 3.1417 19.0526C2.97938 18.6309 2.78098 17.9959 2.73061 16.8273C2.66904 15.5639 2.65776 15.1836 2.65776 11.9864C2.65776 8.78259 2.66904 8.40529 2.73061 7.14187C2.78098 5.97329 2.97938 5.33895 3.1417 4.91365C3.35671 4.3551 3.61671 3.95765 4.03904 3.5383C4.4584 3.11957 4.85522 2.85952 5.4173 2.64158C5.83906 2.47633 6.47344 2.28322 7.64202 2.22756C8.90539 2.17185 9.28274 2.15763 12.4836 2.15763C15.6873 2.15763 16.0617 2.17185 17.325 2.22756C18.4937 2.28322 19.131 2.47633 19.5527 2.64158C20.1118 2.85952 20.5116 3.11957 20.9286 3.5383C21.3503 3.95765 21.6103 4.3551 21.8284 4.91365C21.9906 5.33895 22.1861 5.97329 22.2394 7.14187C22.298 8.40529 22.3122 8.78259 22.3122 11.9864C22.3122 15.1836 22.298 15.5639 22.2394 16.8273ZM24.3972 7.04358C24.3386 5.76655 24.1371 4.8941 23.838 4.13419C23.5336 3.34581 23.1255 2.67769 22.4573 2.00957C21.7922 1.34443 21.1241 0.936316 20.3357 0.62833C19.5729 0.332163 18.7033 0.128394 17.4257 0.0727324C16.1481 0.0111176 15.74 -0.00012207 12.4836 -0.00012207C9.22998 -0.00012207 8.81897 0.0111176 7.54135 0.0727324C6.2667 0.128394 5.39775 0.332163 4.63133 0.62833C3.84594 0.936316 3.17782 1.34443 2.51267 2.00957C1.84455 2.67769 1.43644 3.34581 1.12903 4.13419C0.832861 4.8941 0.631492 5.76655 0.569877 7.04358C0.514215 8.3212 0.5 8.72987 0.5 11.9864C0.5 15.2399 0.514215 15.648 0.569877 16.9256C0.631492 18.2003 0.832861 19.0721 1.12903 19.8356C1.43644 20.621 1.84455 21.2921 2.51267 21.9572C3.17782 22.6224 3.84594 23.0335 4.63133 23.3409C5.39775 23.637 6.2667 23.8384 7.54135 23.8971C8.81897 23.9557 9.22998 23.9699 12.4836 23.9699C15.74 23.9699 16.1481 23.9557 17.4257 23.8971C18.7033 23.8384 19.5729 23.637 20.3357 23.3409C21.1241 23.0335 21.7922 22.6224 22.4573 21.9572C23.1255 21.2921 23.5336 20.621 23.838 19.8356C24.1371 19.0721 24.3386 18.2003 24.3972 16.9256C24.4558 15.648 24.47 15.2399 24.47 11.9864C24.47 8.72987 24.4558 8.3212 24.3972 7.04358Z" fill="url(#paint1_linear_2632_5301)"/>
<path d="M12.4843 15.9781C10.2791 15.9781 8.48978 14.1917 8.48978 11.9865C8.48978 9.77781 10.2791 7.98909 12.4843 7.98909C14.6901 7.98909 16.4818 9.77781 16.4818 11.9865C16.4818 14.1917 14.6901 15.9781 12.4843 15.9781ZM12.4843 5.82837C9.08506 5.82837 6.33203 8.58729 6.33203 11.9865C6.33203 15.3828 9.08506 18.1388 12.4843 18.1388C15.8835 18.1388 18.6395 15.3828 18.6395 11.9865C18.6395 8.58729 15.8835 5.82837 12.4843 5.82837Z" fill="url(#paint2_linear_2632_5301)"/>
</g>
<defs>
<linearGradient id="paint0_linear_2632_5301" x1="0.715306" y1="23.7222" x2="22.4727" y2="1.96492" gradientUnits="userSpaceOnUse">
<stop stop-color="#FFD521"/>
<stop offset="0.05" stop-color="#FFD521"/>
<stop offset="0.501119" stop-color="#F50000"/>
<stop offset="0.95" stop-color="#B900B4"/>
<stop offset="0.950079" stop-color="#B900B4"/>
<stop offset="1" stop-color="#B900B4"/>
</linearGradient>
<linearGradient id="paint1_linear_2632_5301" x1="0.716206" y1="23.7519" x2="22.4915" y2="1.9767" gradientUnits="userSpaceOnUse">
<stop stop-color="#FFD521"/>
<stop offset="0.05" stop-color="#FFD521"/>
<stop offset="0.501119" stop-color="#F50000"/>
<stop offset="0.95" stop-color="#B900B4"/>
<stop offset="0.950079" stop-color="#B900B4"/>
<stop offset="1" stop-color="#B900B4"/>
</linearGradient>
<linearGradient id="paint2_linear_2632_5301" x1="0.722622" y1="23.7527" x2="22.4926" y2="1.9827" gradientUnits="userSpaceOnUse">
<stop stop-color="#FFD521"/>
<stop offset="0.05" stop-color="#FFD521"/>
<stop offset="0.501119" stop-color="#F50000"/>
<stop offset="0.95" stop-color="#B900B4"/>
<stop offset="0.950079" stop-color="#B900B4"/>
<stop offset="1" stop-color="#B900B4"/>
</linearGradient>
<clipPath id="clip0_2632_5301">
<rect width="24" height="24" fill="white" transform="translate(0.5)"/>
</clipPath>
</defs>
</svg>
