<svg width="14" height="14" viewBox="0 0 14 14" fill="none" xmlns="http://www.w3.org/2000/svg">
<path fill-rule="evenodd" clip-rule="evenodd" d="M7.00016 0.333496C3.31816 0.333496 0.333496 3.31816 0.333496 7.00016C0.333496 10.6822 3.31816 13.6668 7.00016 13.6668C10.6822 13.6668 13.6668 10.6822 13.6668 7.00016C13.6668 3.31816 10.6822 0.333496 7.00016 0.333496ZM7.00016 1.00016C7.00016 2.59146 6.36802 4.11759 5.2428 5.2428C4.11759 6.36802 2.59146 7.00016 1.00016 7.00016C2.59146 7.00016 4.11759 7.6323 5.2428 8.75752C6.36802 9.88274 7.00016 11.4089 7.00016 13.0002C7.00016 11.4089 7.6323 9.88274 8.75752 8.75752C9.88274 7.6323 11.4089 7.00016 13.0002 7.00016C11.4089 7.00016 9.88274 6.36802 8.75752 5.2428C7.6323 4.11759 7.00016 2.59146 7.00016 1.00016Z" fill="#0082FF"/>
</svg>
